# This file uses centimeters as units for non-parametric coordinates.

mtllib halfedge_input_nansha.mtl
g default
v 0.500000 -0.500000 0.000000
v 0.500000 -0.250000 0.064190
v 0.250000 -0.250000 0.124876
v 0.250000 -0.500000 0.064190
v 0.500000 0.000000 0.096284
v 0.250000 0.000000 0.155219
v 0.500000 0.250000 0.064190
v 0.250000 0.250000 0.124876
v 0.500000 0.500000 0.000000
v 0.250000 0.500000 0.064190
v 0.000000 0.500000 0.096284
v 0.000000 0.250000 0.155219
v -0.250000 0.500000 0.064190
v -0.250000 0.250000 0.124876
v -0.500000 0.500000 0.000000
v -0.500000 0.250000 0.064190
v -0.500000 0.000000 0.096284
v -0.250000 0.000000 0.155219
v -0.500000 -0.250000 0.064190
v -0.250000 -0.250000 0.124876
v -0.500000 -0.500000 0.000000
v -0.250000 -0.500000 0.064190
v 0.000000 -0.500000 0.096284
v 0.000000 -0.250000 0.155219
v 0.000000 0.000000 0.184687
vt 0.000000 0.000000
vt 0.500000 0.000000
vt 1.000000 0.000000
vt 0.000000 0.500000
vt 0.500000 0.500000
vt 1.000000 0.500000
vt 0.000000 1.000000
vt 0.500000 1.000000
vt 1.000000 1.000000
vt 0.250000 0.250000
vt 0.750000 0.250000
vt 0.250000 0.750000
vt 0.750000 0.750000
vt 0.250000 0.000000
vt 0.500000 0.250000
vt 0.250000 0.500000
vt 0.000000 0.250000
vt 0.750000 0.000000
vt 1.000000 0.250000
vt 0.750000 0.500000
vt 0.500000 0.750000
vt 0.250000 1.000000
vt 0.000000 0.750000
vt 1.000000 0.750000
vt 0.750000 1.000000
vn 0.235494 -0.235494 0.942913
vn 0.233728 -0.180625 0.955377
vn 0.177090 -0.177090 0.968131
vn 0.180625 -0.233728 0.955377
vn 0.232677 0.000000 0.972554
vn 0.175850 0.000000 0.984417
vn 0.233728 0.180625 0.955377
vn 0.177090 0.177090 0.968131
vn 0.235494 0.235494 0.942913
vn 0.180625 0.233728 0.955377
vn -0.000000 0.232677 0.972554
vn -0.000000 0.175850 0.984417
vn -0.180625 0.233728 0.955377
vn -0.177090 0.177090 0.968131
vn -0.235494 0.235494 0.942913
vn -0.233728 0.180625 0.955377
vn -0.232677 0.000000 0.972554
vn -0.175850 0.000000 0.984417
vn -0.233728 -0.180625 0.955377
vn -0.177090 -0.177090 0.968131
vn -0.235494 -0.235494 0.942913
vn -0.180625 -0.233728 0.955377
vn 0.000000 -0.232677 0.972554
vn -0.000000 -0.175850 0.984417
vn -0.000000 0.000000 1.000000
s 1
g pPlane1
usemtl initialShadingGroup
f 1/3/1 2/19/2 3/11/3 4/18/4
f 3/11/3 2/19/2 5/6/5 6/20/6
f 6/20/6 5/6/5 7/24/7 8/13/8
f 8/13/8 7/24/7 9/9/9 10/25/10
f 8/13/8 10/25/10 11/8/11 12/21/12
f 12/21/12 11/8/11 13/22/13 14/12/14
f 14/12/14 13/22/13 15/7/15 16/23/16
f 14/12/14 16/23/16 17/4/17 18/16/18
f 18/16/18 17/4/17 19/17/19 20/10/20
f 20/10/20 19/17/19 21/1/21 22/14/22
f 20/10/20 22/14/22 23/2/23 24/15/24
f 24/15/24 23/2/23 4/18/4 3/11/3
f 24/15/24 3/11/3 6/20/6 25/5/25
f 25/5/25 6/20/6 8/13/8 12/21/12
f 25/5/25 12/21/12 14/12/14 18/16/18
f 25/5/25 18/16/18 20/10/20 24/15/24
