# Rhino

mtllib carbMesh.mtl
usemtl Default
v 3.2739777565002441 1 0.2479291558265686
v 3.8216826915740967 1 0.23136524856090546
v 3.832322359085083 1 0.39225143194198608
v 3.832322359085083 0.76827949285507202 0.39225143194198608
v 3.8216826915740967 0.76827949285507202 0.23136524856090546
v 3.832322359085083 0.75069290399551392 0.39225143194198608
v 3.8213911056518555 0.75069290399551392 0.22695687413215637
v 3.832322359085083 0.73310625553131104 0.39225143194198608
v 3.8209242820739746 0.73310625553131104 0.21989525854587555
v 3.832322359085083 0.71551966667175293 0.39225143194198608
v 3.8201608657836914 0.71551966667175293 0.2083536833524704
v 3.832322359085083 0.69793307781219482 0.39225143194198608
v 3.8187971115112305 0.69793307781219482 0.1877293586730957
v 3.832322359085083 0.68034642934799194 0.39225143194198608
v 3.8160099983215332 0.68034642934799194 0.14558705687522888
v 3.832322359085083 0.66275984048843384 0.39225143194198608
v 3.8126583099365234 0.66275984048843384 0.094902887940406799
v 3.832322359085083 0.64517325162887573 0.39225143194198608
v 3.8106584548950195 0.64517325162887573 0.064665339887142181
v 3.832322359085083 0.62758660316467285 0.39225143194198608
v 3.8093717098236084 0.62758660316467285 0.045207850635051727
v 3.832322359085083 0.61000001430511475 0.39225143194198608
v 3.8084454536437988 0.61000001430511475 0.031199999153614044
v 3.832322359085083 0.38999998569488525 0.39225143194198608
v 3.8084454536437988 0.38999998569488525 0.031199999153614044
v 3.832322359085083 0.37241339683532715 0.39225143194198608
v 3.8093717098236084 0.37241339683532715 0.045207850635051727
v 3.832322359085083 0.35482677817344666 0.39225143194198608
v 3.8106584548950195 0.35482677817344666 0.064665339887142181
v 3.832322359085083 0.33724015951156616 0.39225143194198608
v 3.8126583099365234 0.33724015951156616 0.094902887940406799
v 3.832322359085083 0.31965357065200806 0.39225143194198608
v 3.8160099983215332 0.31965357065200806 0.14558705687522888
v 3.832322359085083 0.30206695199012756 0.39225143194198608
v 3.8187971115112305 0.30206695199012756 0.1877293586730957
v 3.832322359085083 0.28448033332824707 0.39225143194198608
v 3.8201608657836914 0.28448033332824707 0.2083536833524704
v 3.832322359085083 0.26689371466636658 0.39225143194198608
v 3.8209242820739746 0.26689371466636658 0.21989525854587555
v 3.832322359085083 0.24930711090564728 0.39225143194198608
v 3.8213911056518555 0.24930711090564728 0.22695687413215637
v 3.832322359085083 0.23172050714492798 0.39225143194198608
v 3.8216826915740967 0.23172050714492798 0.23136524856090546
v 3.832322359085083 0 0.39225143194198608
v 3.8216826915740967 0 0.23136524856090546
v 3.2774550914764404 1 0.39913901686668396
v 3.2774550914764404 0.77832245826721191 0.39913901686668396
v 3.2774550914764404 0.75961995124816895 0.39913901686668396
v 3.2774550914764404 0.74091744422912598 0.39913901686668396
v 3.2774550914764404 0.72221493721008301 0.39913901686668396
v 3.2774550914764404 0.70351248979568481 0.39913901686668396
v 3.2774550914764404 0.68480998277664185 0.39913901686668396
v 3.2774550914764404 0.66610747575759888 0.39913901686668396
v 3.2774550914764404 0.64740496873855591 0.39913901686668396
v 3.2774550914764404 0.62870252132415771 0.39913901686668396
v 3.2774550914764404 0.61000001430511475 0.39913901686668396
v 3.2774550914764404 0.38999998569488525 0.39913901686668396
v 3.2774550914764404 0.37129750847816467 0.39913901686668396
v 3.2774550914764404 0.3525950014591217 0.39913901686668396
v 3.2774550914764404 0.33389252424240112 0.39913901686668396
v 3.2774550914764404 0.31519001722335815 0.39913901686668396
v 3.2774550914764404 0.29648754000663757 0.39913901686668396
v 3.2774550914764404 0.2777850329875946 0.39913901686668396
v 3.2774550914764404 0.25908255577087402 0.39913901686668396
v 3.2774550914764404 0.24038004875183105 0.39913901686668396
v 3.2774550914764404 0.22167755663394928 0.39913901686668396
v 3.2774550914764404 0 0.39913901686668396
v 3.2739777565002441 0 0.2479291558265686
v 3.2739777565002441 0.22167755663394928 0.2479291558265686
v 3.2738678455352783 0.24038004875183105 0.24315598607063293
v 3.2736921310424805 0.25908255577087402 0.23551000654697418
v 3.2734048366546631 0.2777850329875946 0.22301335632801056
v 3.2728912830352783 0.29648754000663757 0.20068235695362091
v 3.2718417644500732 0.31519001722335815 0.15505272150039673
v 3.2705798149108887 0.33389252424240112 0.10017437487840652
v 3.2698268890380859 0.3525950014591217 0.067434638738632202
v 3.2693424224853516 0.37129750847816467 0.046367015689611435
v 3.268993616104126 0.38999998569488525 0.031199999153614044
v 3.268993616104126 0.61000001430511475 0.031199999153614044
v 3.2693424224853516 0.62870252132415771 0.046367015689611435
v 3.2698268890380859 0.64740496873855591 0.067434638738632202
v 3.2705798149108887 0.66610747575759888 0.10017437487840652
v 3.2718417644500732 0.68480998277664185 0.15505272150039673
v 3.2728912830352783 0.70351248979568481 0.20068235695362091
v 3.2734048366546631 0.72221493721008301 0.22301335632801056
v 3.2736921310424805 0.74091744422912598 0.23551000654697418
v 3.2738678455352783 0.75961995124816895 0.24315598607063293
v 3.2739777565002441 0.77832245826721191 0.2479291558265686
vn -0.70691984891891479 0.70710676908493042 0.016256857663393021
vn 0.47160440683364868 0.49378997087478638 -0.73058933019638062
vn 0.51758968830108643 0.50975286960601807 0.68720662593841553
vn 0.73429131507873535 -5.3784299325343454E-07 0.67883443832397461
vn 0.35108837485313416 0.13309018313884735 -0.92683547735214233
vn 0.73429131507873535 1.2278204621907207E-06 0.67883449792861938
vn 0.67495006322860718 0.1702602356672287 -0.71795117855072021
vn 0.73429125547409058 1.5963259158979781E-07 0.67883455753326416
vn 0.67905300855636597 0.32348468899726868 -0.65897244215011597
vn 0.7342911958694458 5.2724260513059562E-08 0.67883461713790894
vn 0.68448680639266968 0.46163657307624817 -0.56424236297607422
vn 0.73429125547409058 -2.1970596719711466E-07 0.67883455753326416
vn 0.69247704744338989 0.59498584270477295 -0.40800416469573975
vn 0.73429125547409058 -5.0151408004239784E-07 0.67883455753326416
vn 0.69707101583480835 0.64515930414199829 -0.31282827258110046
vn 0.73429131507873535 -6.4744386918391683E-07 0.67883449792861938
vn 0.6966860294342041 0.63451206684112549 -0.33469834923744202
vn 0.73429137468338013 -1.8595393385112402E-06 0.67883443832397461
vn 0.69241636991500854 0.56194049119949341 -0.45252892374992371
vn 0.73429137468338013 1.272135023100418E-06 0.67883443832397461
vn 0.69048774242401123 0.5155792236328125 -0.50735068321228027
vn 0.73429131507873535 1.107283310375351E-06 0.67883449792861938
vn 0.68454581499099731 0.22788925468921661 -0.69243305921554565
vn 0.73429131507873535 -1.107283310375351E-06 0.67883449792861938
vn 0.68454581499099731 -0.22788938879966736 -0.69243299961090088
vn 0.73429137468338013 -1.2721353641609312E-06 0.67883443832397461
vn 0.68802469968795776 -0.43212589621543884 -0.58300018310546875
vn 0.73429137468338013 1.8595355868455954E-06 0.67883443832397461
vn 0.69241636991500854 -0.56194043159484863 -0.45252907276153564
vn 0.73429131507873535 6.4744040173536632E-07 0.67883449792861938
vn 0.6966860294342041 -0.63451206684112549 -0.33469834923744202
vn 0.73429125547409058 5.0151720643043518E-07 0.67883455753326416
vn 0.6989714503288269 -0.66084140539169312 -0.27336341142654419
vn 0.73429125547409058 2.1971192154524033E-07 0.67883455753326416
vn 0.69247704744338989 -0.5949857234954834 -0.40800437331199646
vn 0.7342911958694458 -5.2724097088230337E-08 0.67883461713790894
vn 0.68448680639266968 -0.46163627505302429 -0.56424260139465332
vn 0.73429125547409058 -1.5963969701715541E-07 0.67883455753326416
vn 0.67905300855636597 -0.32348483800888062 -0.65897238254547119
vn 0.73429131507873535 -1.2278253507247427E-06 0.67883449792861938
vn 0.67717975378036499 -0.26060619950294495 -0.68812209367752075
vn 0.73429131507873535 5.3784253850608366E-07 0.67883443832397461
vn 0.45992431044578552 -0.092786625027656555 -0.88309699296951294
vn 0.51758968830108643 -0.50975286960601807 0.68720662593841553
vn 0.47160440683364868 -0.49378997087478638 -0.73058933019638062
vn -0.69810736179351807 0.4981401264667511 0.51429814100265503
vn -0.69447892904281616 1.328726511928835E-06 0.71951305866241455
vn -0.69447886943817139 1.799615176878433E-07 0.71951311826705933
vn -0.69447898864746094 -1.9623903426690958E-06 0.71951299905776978
vn -0.69447910785675049 -6.2629254671264789E-07 0.71951282024383545
vn -0.69447904825210571 1.8457029682394932E-06 0.719512939453125
vn -0.69447892904281616 7.7495207051470061E-07 0.71951305866241455
vn -0.69447892904281616 -7.798787464707857E-07 0.71951305866241455
vn -0.69447892904281616 -1.2764137125031993E-07 0.71951305866241455
vn -0.69447898864746094 -1.231774717780354E-07 0.71951299905776978
vn -0.69447898864746094 1.0800279426348425E-07 0.71951299905776978
vn -0.69447898864746094 -1.0800296479374083E-07 0.71951299905776978
vn -0.69447898864746094 1.2317656228333362E-07 0.71951299905776978
vn -0.69447892904281616 1.2764046175561816E-07 0.71951305866241455
vn -0.69447892904281616 7.7987863278394798E-07 0.71951305866241455
vn -0.69447892904281616 -7.7495479899880593E-07 0.71951305866241455
vn -0.69447904825210571 -1.8457051282894099E-06 0.719512939453125
vn -0.69447910785675049 6.2629447938888916E-07 0.71951282024383545
vn -0.69447898864746094 1.9623917069111485E-06 0.71951299905776978
vn -0.69447886943817139 -1.799626403453658E-07 0.71951311826705933
vn -0.69447892904281616 -1.3287275351103744E-06 0.71951305866241455
vn -0.70691984891891479 -0.70710676908493042 0.016256857663393021
vn -0.021374829113483429 -0.70710676908493042 -0.70678365230560303
vn -0.40880799293518066 -0.13372451066970825 -0.90277004241943359
vn -0.72194021940231323 -0.26578393578529358 -0.63887494802474976
vn -0.40226790308952332 -0.4167901873588562 -0.81514811515808105
vn -0.39721968770027161 -0.63127493858337402 -0.66611450910568237
vn -0.39091625809669495 -0.80250239372253418 -0.45074868202209473
vn -0.70873486995697021 -0.67199587821960449 -0.21474729478359222
vn -0.38513240218162537 -0.84930324554443359 -0.36104992032051086
vn -0.38718858361244202 -0.74152642488479614 -0.54792660474777222
vn -0.71340596675872803 -0.44703793525695801 -0.53963786363601685
vn -0.40698379278182983 -0.35646471381187439 -0.84100955724716187
vn -0.40698376297950745 0.35646453499794006 -0.84100967645645142
vn -0.71244531869888306 0.53082954883575439 -0.45895716547966003
vn -0.3871886134147644 0.74152654409408569 -0.54792642593383789
vn -0.38513240218162537 0.84930324554443359 -0.36104992032051086
vn -0.70981431007385254 0.65655767917633057 -0.25513836741447449
vn -0.39091622829437256 0.80250245332717896 -0.45074856281280518
vn -0.39876016974449158 0.59742057323455811 -0.69575780630111694
vn -0.40226787328720093 0.41678997874259949 -0.81514823436737061
vn -0.72352617979049683 0.17335726320743561 -0.66817450523376465
vn -0.40880799293518066 0.13372451066970825 -0.90277004241943359
f 2//2 3//3 4//4 5//5
f 5//5 4//4 6//6 7//7
f 7//7 6//6 8//8 9//9
f 9//9 8//8 10//10 11//11
f 11//11 10//10 12//12 13//13
f 13//13 12//12 14//14 15//15
f 15//15 14//14 16//16 17//17
f 17//17 16//16 18//18 19//19
f 19//19 18//18 20//20 21//21
f 21//21 20//20 22//22 23//23
f 23//23 22//22 24//24 25//25
f 25//25 24//24 26//26 27//27
f 27//27 26//26 28//28 29//29
f 29//29 28//28 30//30 31//31
f 31//31 30//30 32//32 33//33
f 33//33 32//32 34//34 35//35
f 35//35 34//34 36//36 37//37
f 37//37 36//36 38//38 39//39
f 39//39 38//38 40//40 41//41
f 41//41 40//40 42//42 43//43
f 44//44 45//45 43//43 42//42
f 3//3 46//46 47//47 4//4
f 4//4 47//47 48//48 6//6
f 6//6 48//48 49//49 8//8
f 8//8 49//49 50//50 10//10
f 10//10 50//50 51//51 12//12
f 12//12 51//51 52//52 14//14
f 14//14 52//52 53//53 16//16
f 16//16 53//53 54//54 18//18
f 18//18 54//54 55//55 20//20
f 20//20 55//55 56//56 22//22
f 22//22 56//56 57//57 24//24
f 24//24 57//57 58//58 26//26
f 26//26 58//58 59//59 28//28
f 28//28 59//59 60//60 30//30
f 30//30 60//60 61//61 32//32
f 32//32 61//61 62//62 34//34
f 34//34 62//62 63//63 36//36
f 36//36 63//63 64//64 38//38
f 38//38 64//64 65//65 40//40
f 40//40 65//65 66//66 42//42
f 42//42 66//66 67//67 44//44
f 46//46 3//3 2//2 1//1
f 45//45 68//68 69//69 43//43
f 43//43 69//69 70//70 41//41
f 41//41 70//70 71//71 39//39
f 39//39 71//71 72//72 37//37
f 37//37 72//72 73//73 35//35
f 35//35 73//73 74//74 33//33
f 33//33 74//74 75//75 31//31
f 31//31 75//75 76//76 29//29
f 29//29 76//76 77//77 27//27
f 27//27 77//77 78//78 25//25
f 25//25 78//78 79//79 23//23
f 23//23 79//79 80//80 21//21
f 21//21 80//80 81//81 19//19
f 19//19 81//81 82//82 17//17
f 17//17 82//82 83//83 15//15
f 15//15 83//83 84//84 13//13
f 13//13 84//84 85//85 11//11
f 11//11 85//85 86//86 9//9
f 9//9 86//86 87//87 7//7
f 7//7 87//87 88//88 5//5
f 5//5 88//88 1//1 2//2
f 68//68 45//45 44//44 67//67
f 46//46 1//1 88//88 47//47
f 47//47 88//88 87//87 48//48
f 48//48 87//87 86//86 49//49
f 49//49 86//86 85//85 50//50
f 50//50 85//85 84//84 51//51
f 51//51 84//84 83//83 52//52
f 52//52 83//83 82//82 53//53
f 53//53 82//82 81//81 54//54
f 54//54 81//81 80//80 55//55
f 55//55 80//80 79//79 56//56
f 56//56 79//79 78//78 57//57
f 57//57 78//78 77//77 58//58
f 58//58 77//77 76//76 59//59
f 59//59 76//76 75//75 60//60
f 60//60 75//75 74//74 61//61
f 61//61 74//74 73//73 62//62
f 62//62 73//73 72//72 63//63
f 63//63 72//72 71//71 64//64
f 64//64 71//71 70//70 65//65
f 65//65 70//70 69//69 66//66
f 66//66 69//69 68//68 67//67
